<svg xmlns="http://www.w3.org/2000/svg" viewBox="0 0 64 64" id="accounting"><path fill="#e6e7e8" d="M47 3a3 3 0 0 0-3 3v52a3 3 0 0 1-6 0v-3H7V6a3 3 0 0 1 3-3Z"></path><path fill="#d8d7da" d="M44 20.36V58a3 3 0 0 1-6 0v-3H14.18C23.47 47.7 38.11 34.56 44 20.36Z"></path><path fill="#5aaae7" d="M61 22v32a2.006 2.006 0 0 1-2 2H35a2 2 0 0 1-2-2V22a2.006 2.006 0 0 1 2-2h24a2.006 2.006 0 0 1 2 2Z"></path><path fill="#ffb655" d="M47 42h10v10H47z"></path><path fill="#ff9811" d="M47 34h10v8H47z"></path><path fill="#bcbec0" d="M50 6v7h-6V6a3 3 0 0 1 6 0Z"></path><path fill="#ff9811" d="M44 42h-7v10h10V42h-3z"></path><path fill="#ffb655" d="M44 34h-7v8h10v-8h-3z"></path><path fill="#ff9811" d="M44 24h-7v6h20v-6H44z"></path><path fill="#bcbec0" d="M38 58v-3H3v3a3 3 0 0 0 3 3h35a3 3 0 0 1-3-3Z"></path><path fill="#ee8700" d="M28 39v4H18v-4h10zM28 31v4H18v-4h10z"></path><path fill="#ffa733" d="M27 43v4H17v-4h10zM27 35v4H17v-4h10z"></path><path fill="#ee8700" d="M7 43H3v4h10v-4H7z"></path><path fill="#ffa733" d="M13 39H4v4h10v-4h-1z"></path><path fill="#ee8700" d="M7 35H3v4h10v-4H7z"></path><path fill="#ed1c24" d="M17 14h-2a1 1 0 0 1 0-2h2a1 1 0 0 1 1 1h2a3 3 0 0 0-3-3V8h-2v2a3 3 0 0 0 0 6h2a1 1 0 0 1 0 2h-2a1 1 0 0 1-1-1h-2a3 3 0 0 0 3 3v2h2v-2a3 3 0 0 0 0-6Z"></path><path fill="#bcbec0" d="M22 16h9v2h-9zM22 12h2v2h-2zM26 12h5v2h-5z"></path><path fill="#cc7400" d="M44 37h-1v-1h-2v1h-1v2h1v1h2v-1h1v-2zM44.707 45.707l-1.414-1.414L42 45.586l-1.293-1.293-1.414 1.414L40.586 47l-1.293 1.293 1.414 1.414L42 48.414l1.293 1.293 1.414-1.414L43.414 47l1.293-1.293zM50 37h4v2h-4zM50 44h4v2h-4zM50 48h4v2h-4z"></path></svg>