<svg xmlns="http://www.w3.org/2000/svg" data-name="Layer 1" viewBox="0 0 48 48" id="contract"><rect width="38" height="42" x="5" y="3" fill="#7da8ff" rx="5"></rect><path fill="#ffdc67" d="M36 3V15a1 1 0 01-.47.85A1.014 1.014 0 0135 16a1.03 1.03 0 01-.45-.11L31 14.12l-3.55 1.77A1 1 0 0126 15V3zM19 42a1 1 0 01-.919-.606l-2.23-5.2-1.994 3.324a1 1 0 01-1.714-1.03l3-5a1 1 0 011.776.121l2.049 4.781 1.1-2.758a1 1 0 01.825-.623.985.985 0 01.936.439L23.535 38H30a1 1 0 010 2H23a1 1 0 01-.832-.445l-.945-1.418-1.294 3.234a1 1 0 01-.917.629z"></path><path fill="#f9f5f5" d="M35 24H13a1 1 0 010-2H35a1 1 0 010 2zM35 29H13a1 1 0 010-2H35a1 1 0 010 2zM22 19H13a1 1 0 010-2h9a1 1 0 010 2zM22 14H13a1 1 0 010-2h9a1 1 0 010 2z"></path><path fill="#232323" d="M38,45H10a5.006,5.006,0,0,1-5-5V8a5.006,5.006,0,0,1,5-5H38a5.006,5.006,0,0,1,5,5V40A5.006,5.006,0,0,1,38,45ZM10,5A3,3,0,0,0,7,8V40a3,3,0,0,0,3,3H38a3,3,0,0,0,3-3V8a3,3,0,0,0-3-3Z"></path><path fill="#232323" d="M35,16a1,1,0,0,1-.447-.105L31,14.118,27.447,15.9A1,1,0,0,1,26,15V4a1,1,0,0,1,1-1h8a1,1,0,0,1,0,2H28v8.382l2.553-1.277a1,1,0,0,1,.894,0L34,13.382V8a1,1,0,0,1,2,0v7a1,1,0,0,1-1,1Z"></path></svg>