<svg xmlns="http://www.w3.org/2000/svg" enable-background="new 0 0 64 64" viewBox="0 0 64 64" id="exam"><linearGradient id="a" x1="32.004" x2="32.004" y1="-.5" y2="64.584" gradientUnits="userSpaceOnUse"><stop offset="0" stop-color="#f9a825"></stop><stop offset="1" stop-color="#e53935"></stop></linearGradient><path fill="url(#a)" d="M58.1298828,20.4731445l-1.4140625-1.4140625c-1.1699219-1.1708984-3.0732422-1.1689453-4.2431641,0
	l-2.828125,2.828125L45,26.5317383V6c0-0.5522461-0.4472656-1-1-1H17c-0.0299683,0-0.0471802,0.0088501-0.0717773,0.0125122
	c-0.2348022,0.0169067-0.4619751,0.1063232-0.6352539,0.2804565l-11,11c-0.180603,0.180603-0.2706909,0.4193115-0.2814331,0.6641846
	C5.0097046,16.972168,5,16.984314,5,17v41c0,0.5527344,0.4477539,1,1,1h38c0.5527344,0,1-0.4472656,1-1V38
	c0-0.0455322-0.0200195-0.0844727-0.0258789-0.128418l10.3276367-10.3276367l2.828125-2.828125
	C59.2998047,23.5463867,59.2998047,21.6430664,58.1298828,20.4731445z M52.5526733,27.4649048l-2.8289795-2.8287354
	l0.6278687-0.6278687l2.8291016,2.8286133L52.5526733,27.4649048z M30.5527344,49.4648438L29.84552,48.7575073
	l20.5858154-20.5858154l0.7072754,0.7072754L30.5527344,49.4648438z M26.7470703,48.4869385l1.9547729,1.9550171
	l-2.932312,0.9769897L26.7470703,48.4869385z M27.7241211,46.6357422l20.5855103-20.5855103l0.7075195,0.7075195
	L28.4315796,47.3433228L27.7241211,46.6357422z M16,8.4140625V16H8.4140625L16,8.4140625z M43,57H7V18h10
	c0.5522461,0,1-0.4477539,1-1V7h25v21.5317383L25.6030273,45.9287109c-0.107666,0.107666-0.178894,0.2351074-0.2272339,0.3694458
	c-0.0036621,0.008667-0.0113525,0.0117798-0.0144653,0.0211792L23.4676514,52H11c-0.5522461,0-1,0.4472656-1,1s0.4477539,1,1,1h13
	c0.0446167,0,0.0827026-0.0197144,0.1257935-0.0253906C24.1455688,53.9867554,24.164917,54,24.1884766,54
	c0.105957,0,0.2124023-0.0166016,0.3164062-0.0517578l6.3642578-2.1210938
	c0.0100098-0.0032959,0.0131226-0.0117188,0.0223389-0.015686c0.1363525-0.0494385,0.2637939-0.1210327,0.3682861-0.2255249
	L43,39.8457031V57z M56.7158203,23.3017578l-2.1211548,2.1211548l-2.8289795-2.8287354l2.1210327-2.1210327
	c0.390625-0.3891602,1.0244141-0.3901367,1.4150391,0l1.4140625,1.4140625
	C57.1054688,22.2773438,57.1054688,22.9116211,56.7158203,23.3017578z M28,24h12c0.5527344,0,1-0.4477539,1-1V9
	c0-0.5522461-0.4472656-1-1-1H28c-0.5522461,0-1,0.4477539-1,1v14C27,23.5522461,27.4477539,24,28,24z M29,10h10v12H29V10z M34,11
	c-2.2055664,0-4,1.7944336-4,4v5c0,0.5522461,0.4477539,1,1,1s1-0.4477539,1-1v-2h4v2c0,0.5522461,0.4472656,1,1,1s1-0.4477539,1-1
	v-5C38,12.7944336,36.2060547,11,34,11z M32,16v-1c0-1.1030273,0.8969727-2,2-2c1.1025391,0,2,0.8969727,2,2v1H32z M11,28h18
	c0.5522461,0,1,0.4477539,1,1s-0.4477539,1-1,1H11c-0.5522461,0-1-0.4477539-1-1S10.4477539,28,11,28z M30,35
	c0,0.5527344-0.4477539,1-1,1H11c-0.5522461,0-1-0.4472656-1-1s0.4477539-1,1-1h18C29.5522461,34,30,34.4472656,30,35z M27,41
	c0,0.5527344-0.4477539,1-1,1H11c-0.5522461,0-1-0.4472656-1-1s0.4477539-1,1-1h15C26.5522461,40,27,40.4472656,27,41z M23,47
	c0,0.5527344-0.4477539,1-1,1H11c-0.5522461,0-1-0.4472656-1-1s0.4477539-1,1-1h11C22.5522461,46,23,46.4472656,23,47z
	 M39.5996094,25.2001953c0.4423828,0.3310547,0.5322266,0.9580078,0.2001953,1.3999023l-3,4
	c-0.1738281,0.2319336-0.4394531,0.3769531-0.7285156,0.3974609C36.046875,30.9990234,36.0234375,31,36,31
	c-0.2646484,0-0.5185547-0.1044922-0.7070312-0.2929688l-2-2c-0.390625-0.390625-0.390625-1.0234375,0-1.4140625
	s1.0234375-0.390625,1.4140625,0l1.1845703,1.1845703l2.3085938-3.0776367
	C38.5322266,24.9589844,39.1582031,24.8681641,39.5996094,25.2001953z M33.2929688,52.7070312
	c-0.390625-0.390625-0.390625-1.0234375,0-1.4140625s1.0234375-0.390625,1.4140625,0l1.1845703,1.1845703l2.3085938-3.0771484
	c0.3320312-0.4423828,0.9580078-0.53125,1.3994141-0.2001953c0.4423828,0.3310547,0.5322266,0.9580078,0.2001953,1.3994141l-3,4
	c-0.1738281,0.2324219-0.4394531,0.3769531-0.7285156,0.3974609C36.046875,54.9990234,36.0234375,55,36,55
	c-0.2646484,0-0.5185547-0.1044922-0.7070312-0.2929688L33.2929688,52.7070312z M9,20c0-0.5522461,0.4477539-1,1-1h5
	c0.5522461,0,1,0.4477539,1,1s-0.4477539,1-1,1h-5C9.4477539,21,9,20.5522461,9,20z M19,20c0-0.5522461,0.4477539-1,1-1h2
	c0.5522461,0,1,0.4477539,1,1s-0.4477539,1-1,1h-2C19.4477539,21,19,20.5522461,19,20z M10,24c-0.5522461,0-1-0.4477539-1-1
	s0.4477539-1,1-1h5c0.5522461,0,1,0.4477539,1,1s-0.4477539,1-1,1H10z M19,23c0-0.5522461,0.4477539-1,1-1h2
	c0.5522461,0,1,0.4477539,1,1s-0.4477539,1-1,1h-2C19.4477539,24,19,23.5522461,19,23z M19,14c0-0.5522461,0.4477539-1,1-1h2
	c0.5522461,0,1,0.4477539,1,1s-0.4477539,1-1,1h-2C19.4477539,15,19,14.5522461,19,14z M19,11c0-0.5522461,0.4477539-1,1-1h2
	c0.5522461,0,1,0.4477539,1,1s-0.4477539,1-1,1h-2C19.4477539,12,19,11.5522461,19,11z M19,17c0-0.5522461,0.4477539-1,1-1h2
	c0.5522461,0,1,0.4477539,1,1s-0.4477539,1-1,1h-2C19.4477539,18,19,17.5522461,19,17z"></path></svg>