<svg xmlns="http://www.w3.org/2000/svg" enable-background="new 0 0 512 512" viewBox="0 0 512 512" id="id-card"><linearGradient id="a" x1="256" x2="256" y1="19.234" y2="483.258" gradientUnits="userSpaceOnUse"><stop offset="0" stop-color="#f2be5c"></stop><stop offset=".5" stop-color="#d8330c"></stop><stop offset="1" stop-color="#6241d9"></stop></linearGradient><path fill="url(#a)" d="M128,512h256c22.055,0,40-17.945,40-40V128c0-22.055-17.945-40-40-40h-56.472
	C325.13,66.429,313.183,47.703,296,36.175V8c0-4.418-3.582-8-8-8h-64c-4.418,0-8,3.582-8,8v28.175
	C198.817,47.703,186.87,66.429,184.472,88H128c-22.055,0-40,17.945-40,40v344C88,494.055,105.945,512,128,512z M232,16h48v12.201
	C272.48,25.53,264.424,24,256,24s-16.48,1.53-24,4.201V16z M256,40c30.879,0,56,25.121,56,56c0,18.981-9.514,35.759-24,45.891V96
	c0-17.645-14.355-32-32-32s-32,14.355-32,32v45.891c-14.486-10.132-24-26.91-24-45.891C200,65.121,225.121,40,256,40z M272,149.642
	c-5.075,1.517-10.438,2.358-16,2.358s-10.925-0.842-16-2.358V96c0-8.824,7.176-16,16-16s16,7.176,16,16V149.642z M104,128
	c0-13.234,10.766-24,24-24h56.472c3.996,35.944,34.536,64,71.528,64s67.532-28.056,71.528-64H384c13.234,0,24,10.766,24,24v344
	c0,13.234-10.766,24-24,24H128c-13.234,0-24-10.766-24-24V128z"></path><linearGradient id="b" x1="256" x2="256" y1="19.234" y2="483.258" gradientUnits="userSpaceOnUse"><stop offset="0" stop-color="#f2be5c"></stop><stop offset=".5" stop-color="#d8330c"></stop><stop offset="1" stop-color="#6241d9"></stop></linearGradient><path fill="url(#b)" d="M152,344v128c0,4.418,3.582,8,8,8h192c4.418,0,8-3.582,8-8V344c0-4.418-3.582-8-8-8H160
	C155.582,336,152,339.582,152,344z M168,352h176v112H168V352z"></path><linearGradient id="c" x1="256" x2="256" y1="19.234" y2="483.258" gradientUnits="userSpaceOnUse"><stop offset="0" stop-color="#f2be5c"></stop><stop offset=".5" stop-color="#d8330c"></stop><stop offset="1" stop-color="#6241d9"></stop></linearGradient><path fill="url(#c)" d="M227.68,320h56.641c10.281,0,19.43-5.352,24.469-14.312c5.043-8.961,4.863-19.559-0.48-28.348
	l-19.004-31.26C293.519,239.745,296,232.162,296,224c0-22.055-17.945-40-40-40s-40,17.945-40,40c0,8.162,2.481,15.745,6.695,22.08
	l-19.004,31.26c-5.344,8.789-5.523,19.387-0.48,28.348C208.25,314.648,217.398,320,227.68,320z M256,200c13.234,0,24,10.766,24,24
	s-10.766,24-24,24s-24-10.766-24-24S242.766,200,256,200z M217.363,285.652l17.065-28.071C240.665,261.602,248.044,264,256,264
	s15.335-2.398,21.572-6.419l17.065,28.071c2.297,3.777,2.375,8.336,0.207,12.191S288.742,304,284.32,304H227.68
	c-4.422,0-8.355-2.301-10.523-6.156S215.066,289.43,217.363,285.652z"></path><linearGradient id="d" x1="304" x2="304" y1="19.234" y2="483.258" gradientUnits="userSpaceOnUse"><stop offset="0" stop-color="#f2be5c"></stop><stop offset=".5" stop-color="#d8330c"></stop><stop offset="1" stop-color="#6241d9"></stop></linearGradient><path fill="url(#d)" d="M320,368h-32c-4.418,0-8,3.582-8,8s3.582,8,8,8h32c4.418,0,8-3.582,8-8S324.418,368,320,368z"></path><linearGradient id="e" x1="224" x2="224" y1="19.234" y2="483.258" gradientUnits="userSpaceOnUse"><stop offset="0" stop-color="#f2be5c"></stop><stop offset=".5" stop-color="#d8330c"></stop><stop offset="1" stop-color="#6241d9"></stop></linearGradient><path fill="url(#e)" d="M192,384h64c4.418,0,8-3.582,8-8s-3.582-8-8-8h-64c-4.418,0-8,3.582-8,8S187.582,384,192,384z"></path><linearGradient id="f" x1="280" x2="280" y1="19.234" y2="483.258" gradientUnits="userSpaceOnUse"><stop offset="0" stop-color="#f2be5c"></stop><stop offset=".5" stop-color="#d8330c"></stop><stop offset="1" stop-color="#6241d9"></stop></linearGradient><path fill="url(#f)" d="M320,400h-80c-4.418,0-8,3.582-8,8s3.582,8,8,8h80c4.418,0,8-3.582,8-8S324.418,400,320,400z"></path><linearGradient id="g" x1="304" x2="304" y1="19.234" y2="483.258" gradientUnits="userSpaceOnUse"><stop offset="0" stop-color="#f2be5c"></stop><stop offset=".5" stop-color="#d8330c"></stop><stop offset="1" stop-color="#6241d9"></stop></linearGradient><path fill="url(#g)" d="M320,432h-32c-4.418,0-8,3.582-8,8s3.582,8,8,8h32c4.418,0,8-3.582,8-8S324.418,432,320,432z"></path><linearGradient id="h" x1="204" x2="204" y1="19.234" y2="483.258" gradientUnits="userSpaceOnUse"><stop offset="0" stop-color="#f2be5c"></stop><stop offset=".5" stop-color="#d8330c"></stop><stop offset="1" stop-color="#6241d9"></stop></linearGradient><path fill="url(#h)" d="M216,432h-24c-4.418,0-8,3.582-8,8s3.582,8,8,8h24c4.418,0,8-3.582,8-8S220.418,432,216,432z"></path><linearGradient id="i" x1="144" x2="144" y1="19.234" y2="483.258" gradientUnits="userSpaceOnUse"><stop offset="0" stop-color="#f2be5c"></stop><stop offset=".5" stop-color="#d8330c"></stop><stop offset="1" stop-color="#6241d9"></stop></linearGradient><path fill="url(#i)" d="M128,192c4.418,0,8-3.582,8-8v-40c0-4.41,3.59-8,8-8h16c4.418,0,8-3.582,8-8s-3.582-8-8-8h-16
	c-13.234,0-24,10.766-24,24v40C120,188.418,123.582,192,128,192z"></path><linearGradient id="j" x1="200" x2="200" y1="19.234" y2="483.258" gradientUnits="userSpaceOnUse"><stop offset="0" stop-color="#f2be5c"></stop><stop offset=".5" stop-color="#d8330c"></stop><stop offset="1" stop-color="#6241d9"></stop></linearGradient><path fill="url(#j)" d="M192,416h16c4.418,0,8-3.582,8-8s-3.582-8-8-8h-16c-4.418,0-8,3.582-8,8S187.582,416,192,416z"></path><linearGradient id="k" x1="252" x2="252" y1="19.234" y2="483.258" gradientUnits="userSpaceOnUse"><stop offset="0" stop-color="#f2be5c"></stop><stop offset=".5" stop-color="#d8330c"></stop><stop offset="1" stop-color="#6241d9"></stop></linearGradient><path fill="url(#k)" d="M256,432h-8c-4.418,0-8,3.582-8,8s3.582,8,8,8h8c4.418,0,8-3.582,8-8S260.418,432,256,432z"></path></svg>