<svg xmlns="http://www.w3.org/2000/svg" viewBox="0 0 82.676 86.959">
        <g
            id="Group_2930"
            data-name="Group 2930"
            transform="translate(-20.568 -21.284)"
        >
            <path
                id="Path_212"
                data-name="Path 212"
                d="M112.961,69.887l-10.406,5.607c-.227-.441-.475-.867-.739-1.28l6.328-4.534-.223-.311-6.315,4.525q-.42-.62-.894-1.194l8.95-7.632q-.316-.371-.646-.73l-8.669,7.937q-.491-.552-1.031-1.053l4.938-6.065-.3-.242-4.924,6.048q-.568-.5-1.182-.947l6.8-9.542q-.4-.285-.811-.556L97.4,69.7a15.642,15.642,0,0,0-1.386-.829L99.6,61.885l-.341-.175L95.67,68.694q-.614-.306-1.254-.559l4.231-10.9q-.457-.177-.923-.339l-3.83,11.04q-.73-.257-1.489-.441l1.9-7.4-.371-.095-1.9,7.4q-.7-.152-1.413-.239l1.406-11.59q-.485-.059-.973-.1l-.989,11.633c-.446-.039-.895-.06-1.348-.06-.1,0-.207.01-.311.011l.014-7.78h-.383l-.013,7.795c-.448.02-.893.056-1.333.114L85.221,55.6q-.485.061-.963.139l1.873,11.541c-.486.082-.965.188-1.438.315l-1.958-7.463-.37.1,1.958,7.462c-.483.142-.954.312-1.419.5l-4.29-10.906q-.453.178-.9.371l4.67,10.752c-.451.2-.893.422-1.323.664l-3.879-6.737-.332.191,3.883,6.744c-.428.256-.845.528-1.246.824l-6.855-9.551q-.4.284-.783.583l7.2,9.31q-.579.459-1.114.973L72.4,65.862l-.271.27,5.521,5.541c-.351.353-.678.731-1,1.119l-9.021-7.629q-.316.374-.619.759l9.294,7.3q-.458.6-.858,1.256L68.9,70.289l-.206.322,6.563,4.2c-.2.343-.459.827-.676,1.265l-10.67-5.206q-.214.439-.413.887l10.847,4.817,0,0,3.988,1.438a11.358,11.358,0,0,1,20.832.163l14.242-7.423Q113.193,70.317,112.961,69.887Z"
                transform="translate(-26.496 -21.106)"
                fill="#f27c00"
            />
            <path
                id="Path_213"
                data-name="Path 213"
                d="M112.635,110.133l-4.435-5.114-5.938.312c-2.8,2.7-8.017,2.78-8.017,2.78-7.63,1.1-8.7,2.471-8.7,2.471-.5-.911-3.16-1.461-3.16-1.461-4.636-.075-4.94-1.055-5.2-1.044a31.17,31.17,0,0,1-7.757-2.2C67,104.592,66.678,105,66.678,105c-.533,1.478-3.086.521-3.086.521a40.9,40.9,0,0,0-3.786,4.389c-2.713,3.084.531,3.35.531,3.35L72.46,118.58l-11.534,5.694,10.223-.479c-1.124,1.563-8.97,10.218-8.97,10.218L84.193,125.9l-.3-.976c.36-.942,2.68-.707,2.68-.707l1.091.817-1.6,1.058,18.649,6.645c4.508,1.923,3.186.33,3.186.33l-8.314-7.661.726-1.75,10.182.113c1.4.341.781-.292.781-.292l-11.839-5.138,11.965-6.306C113.619,111.415,112.635,110.133,112.635,110.133Zm-45.533-1.7s.844-2.414,2.927-1.154a19.167,19.167,0,0,0,6.121,1.727s4.993.842,5.146,1.031,3.185.215,3.348,1.844l-.148,4.819s-8.056-3.043-11.885-3.339c0,0-3.967.07-5.818-1.54C66.793,111.826,65.33,111.189,67.1,108.438Zm2.126,7.2s-.93-1-.009-1.436c0,0,9.829.292,11.038,3.066,0,0-.358,3.437-4.644,1.677C75.613,118.949,70.7,117.817,69.228,115.643ZM67.2,130.7l5.783-7.379-7.289-.5,7.273-3.075,7.589,1.28,1.753,4.162Zm18.374-8.158c-2.682.577-1.919-1.768-1.919-1.768a3.543,3.543,0,0,1,4.268,1.013C88.421,122.561,85.573,122.543,85.573,122.543Zm20.83.211L98.969,122l-1.322,3.1,6.872,6.329-13.611-6.192-.162-3.951,6.684-1.465Zm-11.581-3.7s-3.89.159-3.059-1.994c0,0,1.488-2.5,8.813-2.8l2.165-.288S104.173,116.557,94.822,119.057Zm7.852-6.467s-13.38,2.723-15.926,4.666l-.321-4.2s-.87-3.187,5.712-3.41c0,0,9.267-1.363,10.581-3.157,0,0,.877-.384,2.712,3.257C105.431,109.746,106.776,112.17,102.674,112.591Z"
                transform="translate(-23.548 -51.628)"
                fill="#00862f"
            />
            <g
                id="Group_2926"
                data-name="Group 2926"
                transform="translate(48.5 83.038)"
            >
                <path
                    id="Path_214"
                    data-name="Path 214"
                    d="M95.7,184.98H94.075V186.5H95.9v.456H93.526v-4.205H95.8v.456H94.075v1.329H95.7Z"
                    transform="translate(-93.526 -182.684)"
                    fill="#161615"
                />
                <path
                    id="Path_215"
                    data-name="Path 215"
                    d="M101.151,186.189a1.894,1.894,0,0,0,.967.269c.555,0,.879-.287.879-.712,0-.393-.224-.624-.792-.836-.686-.237-1.111-.6-1.111-1.186a1.211,1.211,0,0,1,1.36-1.142,1.963,1.963,0,0,1,.923.2l-.15.449a1.554,1.554,0,0,0-.792-.2c-.574,0-.793.343-.793.63,0,.387.256.58.836.805.711.281,1.067.618,1.067,1.235,0,.643-.474,1.211-1.466,1.211a2.173,2.173,0,0,1-1.073-.274Z"
                    transform="translate(-98.143 -182.583)"
                    fill="#161615"
                />
                <path
                    id="Path_216"
                    data-name="Path 216"
                    d="M109.621,183.208h-1.279v-.462h3.113v.462H110.17v3.744h-.549Z"
                    transform="translate(-102.67 -182.684)"
                    fill="#161615"
                />
                <path
                    id="Path_217"
                    data-name="Path 217"
                    d="M117.681,182.752a7.954,7.954,0,0,1,1.16-.087,2.407,2.407,0,0,1,1.7.524,1.918,1.918,0,0,1,.6,1.51,2.25,2.25,0,0,1-.6,1.635,2.617,2.617,0,0,1-1.866.605,7.649,7.649,0,0,1-.992-.05Zm.549,3.725a3.534,3.534,0,0,0,.549.025,1.614,1.614,0,0,0,1.791-1.784,1.5,1.5,0,0,0-1.7-1.622,3.07,3.07,0,0,0-.636.056Z"
                    transform="translate(-108.433 -182.634)"
                    fill="#161615"
                />
                <path
                    id="Path_218"
                    data-name="Path 218"
                    d="M128.539,186.9a.391.391,0,0,1,.006-.78.391.391,0,0,1,0,.78Zm0,2.2a.391.391,0,0,1,.006-.78.391.391,0,0,1,0,.78Z"
                    transform="translate(-114.911 -184.766)"
                    fill="#161615"
                />
                <path
                    id="Path_219"
                    data-name="Path 219"
                    d="M134.877,187.082v-.337l.43-.418c1.036-.986,1.51-1.51,1.51-2.121a.719.719,0,0,0-.8-.792,1.382,1.382,0,0,0-.861.343l-.175-.387a1.8,1.8,0,0,1,1.148-.412,1.139,1.139,0,0,1,1.235,1.179c0,.749-.543,1.354-1.4,2.177l-.318.3v.013h1.816v.456Z"
                    transform="translate(-119.046 -182.814)"
                    fill="#161615"
                />
                <path
                    id="Path_220"
                    data-name="Path 220"
                    d="M144.439,187.151c-.792,0-1.335-.743-1.347-2.084,0-1.366.592-2.109,1.416-2.109.848,0,1.342.761,1.342,2.053,0,1.379-.518,2.14-1.4,2.14Zm.031-.425c.555,0,.824-.655.824-1.691,0-1-.25-1.654-.824-1.654-.5,0-.824.636-.824,1.654-.012,1.054.312,1.691.817,1.691Z"
                    transform="translate(-124.115 -182.814)"
                    fill="#161615"
                />
                <path
                    id="Path_221"
                    data-name="Path 221"
                    d="M153.383,183.649h-.013l-.7.381-.106-.418.886-.474h.468v4.056h-.53Z"
                    transform="translate(-129.959 -182.925)"
                    fill="#161615"
                />
                <path
                    id="Path_222"
                    data-name="Path 222"
                    d="M162.351,183.6H160.8l-.156,1.042a2.137,2.137,0,0,1,.33-.025,1.7,1.7,0,0,1,.874.219,1.149,1.149,0,0,1,.58,1.042,1.407,1.407,0,0,1-1.51,1.386,2,2,0,0,1-1.011-.25l.137-.418a1.823,1.823,0,0,0,.874.225.89.89,0,0,0,.954-.886c0-.518-.356-.892-1.16-.892a3.392,3.392,0,0,0-.568.044l.262-1.947h1.94Z"
                    transform="translate(-134.495 -182.925)"
                    fill="#161615"
                />
            </g>
            <g
                id="Group_2927"
                data-name="Group 2927"
                transform="translate(20.905 21.284)"
            >
                <path
                    id="Path_223"
                    data-name="Path 223"
                    d="M46.08,91.351q-.188-.335-.369-.675l.338-.18q.179.336.366.667ZM104.4,91.17l-.336-.185.088-.161.336.184Zm.626-1.185-.343-.172q.171-.34.334-.685l.346.164Q105.2,89.641,105.028,89.985Zm-59.842-.338q-.169-.346-.33-.7l.348-.16q.159.347.326.688Zm60.657-1.407-.351-.152c.1-.233.2-.467.293-.7l.355.144Q105.995,87.887,105.843,88.24Zm-61.451-.347q-.148-.354-.289-.713l.356-.14q.139.354.286.705Zm62.163-1.442-.359-.131q.13-.357.253-.718l.363.123Q106.686,86.09,106.554,86.452ZM43.7,86.1q-.127-.363-.247-.729l.364-.119q.118.362.245.721Zm63.461-1.474-.366-.11q.109-.364.21-.732l.369.1Q107.272,84.256,107.161,84.624Zm-64.046-.359q-.106-.369-.2-.742l.37-.1q.1.368.2.734Zm64.546-1.5-.373-.088q.088-.37.167-.743l.375.08Q107.749,82.39,107.661,82.764ZM42.636,82.4q-.084-.375-.161-.753l.376-.075q.075.373.159.744Zm65.415-1.521-.377-.067q.066-.374.124-.752l.378.058Q108.118,80.5,108.051,80.879Zm-65.784-.367q-.063-.378-.117-.76l.379-.054q.053.377.115.752Zm66.066-1.538-.38-.045q.045-.378.08-.758l.381.036Q108.377,78.592,108.332,78.974Zm-66.325-.369q-.041-.382-.073-.766l.381-.032q.032.38.072.757Zm66.5-1.549-.382-.023q.023-.38.037-.761l.383.015Q108.526,76.672,108.5,77.056Zm-66.645-.369q-.019-.383-.029-.769l.383-.01q.01.381.029.76Zm66.706-1.557h-.383V75.02q0-.327-.007-.653l.383-.007q.006.329.007.66ZM42.2,74.766l-.383,0q0-.386.015-.77l.383.011Q42.2,74.385,42.2,74.766Zm65.933-1.539q-.021-.381-.05-.76l.382-.029q.029.382.05.768Zm-65.865-.362-.382-.024q.025-.385.059-.768l.381.033Q42.293,72.484,42.269,72.865Zm65.708-1.534q-.042-.379-.093-.756l.379-.051q.052.381.094.764Zm-65.531-.36-.38-.046q.047-.383.1-.763l.379.056Q42.492,70.592,42.446,70.97Zm65.266-1.524q-.063-.376-.136-.749l.376-.073q.073.377.138.758Zm-64.98-.357-.377-.068q.069-.38.147-.756l.375.077Q42.8,68.715,42.731,69.09Zm64.608-1.508q-.086-.372-.18-.74l.371-.094q.095.372.181.748Zm-64.214-.353-.372-.09q.091-.375.19-.746l.369.1Q43.215,66.858,43.125,67.228Zm63.734-1.488q-.107-.366-.222-.728L107,64.9q.117.367.225.737Zm-63.232-.347-.366-.111q.113-.37.234-.737l.364.12Q43.738,65.027,43.627,65.393Zm62.645-1.463q-.129-.359-.265-.714l.358-.137q.137.359.267.722Zm-62.036-.346-.36-.133q.134-.362.276-.721l.356.141Q44.368,63.226,44.236,63.584Zm61.346-1.423q-.148-.35-.3-.7l.349-.157q.157.35.307.7Zm-60.634-.347-.351-.153q.155-.354.317-.7l.347.162Q45.1,61.464,44.948,61.814Zm59.844-1.378q-.168-.341-.344-.677l.34-.177q.177.34.348.685ZM45.763,60.09l-.341-.173q.175-.345.358-.684l.337.181Q45.935,59.75,45.763,60.09ZM103.9,58.76q-.188-.331-.382-.657l.328-.2q.2.329.386.663Zm-57.228-.343-.331-.193q.194-.333.4-.662l.326.2Q46.867,58.088,46.675,58.417Zm56.244-1.281q-.206-.319-.42-.633l.316-.216q.217.318.425.641ZM47.682,56.8l-.319-.212q.213-.321.433-.637l.314.219Q47.893,56.482,47.682,56.8Zm54.16-1.23q-.224-.307-.456-.608l.3-.233q.234.306.461.616ZM48.78,55.244l-.306-.23q.231-.308.469-.611l.3.237Q49.009,54.939,48.78,55.244Zm51.9-1.176q-.242-.294-.49-.582l.29-.25q.251.291.5.588Zm-50.711-.314-.293-.247q.249-.294.5-.583l.287.253Q50.212,53.463,49.966,53.754Zm49.461-1.119q-.258-.279-.523-.553l.275-.266q.268.277.529.559Zm-48.193-.3-.278-.263q.265-.28.536-.553l.272.27Q51.5,52.059,51.234,52.335ZM98.1,51.275q-.273-.265-.554-.523l.26-.281q.283.261.56.528Zm-45.515-.283-.263-.279q.28-.264.566-.521l.256.284Q52.859,50.732,52.582,50.992Zm44.108-1q-.289-.249-.583-.49l.243-.3q.3.244.59.5ZM54,49.729l-.246-.294q.295-.247.595-.487l.239.3Q54.294,49.484,54,49.729Zm41.209-.935q-.3-.231-.611-.456l.226-.309q.311.227.618.461Zm-39.719-.245-.229-.307q.308-.23.622-.453l.222.312Q55.8,48.322,55.494,48.549Zm38.173-.868q-.315-.214-.635-.42l.207-.322q.324.208.643.425Zm-36.617-.224-.211-.32q.321-.212.647-.416l.2.324Q57.366,47.248,57.049,47.458Zm35.01-.8q-.328-.2-.66-.383l.188-.333q.336.19.667.387Zm-33.4-.2-.192-.331q.332-.192.669-.378l.184.335Q58.992,46.267,58.664,46.458ZM90.4,45.731q-.339-.176-.681-.344l.169-.344q.346.171.688.348Zm-30.062-.178-.173-.342q.342-.173.69-.338l.165.345Q60.672,45.383,60.333,45.553ZM88.678,44.9q-.348-.156-.7-.3l.149-.353q.355.15.708.308ZM62.05,44.747,61.9,44.4q.351-.153.708-.3l.144.355Q62.4,44.6,62.05,44.747Zm24.865-.576q-.357-.136-.717-.263l.128-.361q.365.129.726.266Zm-23.1-.131-.132-.359q.361-.133.726-.257l.124.363Q64.17,43.909,63.813,44.04Zm21.3-.5q-.363-.114-.729-.22l.106-.368q.371.107.738.223Zm-19.5-.108-.111-.366q.368-.111.74-.215l.1.369Q65.982,43.326,65.618,43.436Zm17.665-.411q-.368-.093-.74-.177l.085-.374c.251.057.5.117.749.18Zm-15.828-.088-.09-.372q.374-.09.751-.171l.081.374Q67.823,42.849,67.454,42.938Zm13.971-.324q-.373-.072-.749-.134l.064-.378q.38.064.758.136Zm-12.11-.067-.067-.377q.378-.068.759-.127l.059.378Q69.689,42.48,69.315,42.547Zm10.232-.236q-.376-.05-.756-.091l.041-.381q.384.042.765.092Zm-8.35-.046-.046-.38q.381-.046.766-.083l.037.381Q71.574,42.22,71.2,42.265Zm6.458-.149q-.38-.028-.76-.047l.02-.382q.385.02.769.048Zm-4.563-.025-.024-.382q.383-.024.769-.039l.015.382Q73.471,42.068,73.092,42.091Zm2.662-.061q-.281,0-.564,0h-.2l0-.383h.2q.285,0,.57,0Z"
                    transform="translate(-34.019 -33.848)"
                    fill="#161615"
                />
                <path
                    id="Path_224"
                    data-name="Path 224"
                    d="M99.032,86.4l-.325-.2q.2-.323.4-.649l.328.2Q99.236,86.079,99.032,86.4ZM32.1,85.7q-.2-.33-.389-.664l.332-.19q.189.331.385.657Zm65.208-.886-.5-.576.288-.252.5.576Zm-63.106-.052-.271-.271L34,84.43l.271.271Zm65.807-.011-.334-.187q.186-.332.366-.668l.337.181C100.262,84.3,100.138,84.527,100.014,84.751Zm-68.855-.726q-.181-.34-.356-.683l.342-.173q.173.34.352.676Zm3.921-.137-.271-.271.541-.542.271.271Zm60.972-.515-.5-.577.289-.252.5.577Zm4.86-.322-.343-.171q.169-.341.333-.685l.346.163Q101.083,82.707,100.912,83.051Zm-64.479-.516-.271-.271.541-.541.271.271Zm-6.139-.229q-.164-.348-.322-.7l.35-.156q.156.348.319.693Zm64.5-.375-.111-.127.288-.252.111.127Zm6.932-.622-.351-.154q.152-.349.3-.7l.354.146Q101.88,80.957,101.726,81.309Zm-72.208-.763q-.146-.355-.286-.715l.357-.139q.138.355.284.707Zm72.935-1.017-.358-.136q.135-.355.263-.714l.361.129Q102.589,79.169,102.452,79.528Zm-73.624-.779q-.129-.362-.251-.728l.363-.121q.121.362.248.721Zm74.262-1.034-.364-.118q.117-.362.227-.726l.366.11Q103.209,77.35,103.09,77.715ZM28.229,76.92q-.111-.368-.214-.74l.369-.1q.1.368.212.732Zm75.409-1.048-.369-.1q.1-.366.191-.736l.372.092Q103.738,75.5,103.637,75.872Zm-75.917-.808q-.092-.373-.178-.75l.373-.084q.084.372.176.742ZM104.093,74l-.374-.082q.081-.371.155-.745l.376.074Q104.175,73.63,104.093,74ZM27.3,73.185q-.074-.377-.14-.757l.377-.066q.065.376.139.75Zm77.151-1.068-.377-.063q.062-.374.118-.752l.379.056Q104.519,71.739,104.455,72.117Zm-77.474-.829q-.055-.381-.1-.764l.38-.047q.047.379.1.757Zm77.744-1.074-.381-.044q.044-.378.081-.757l.381.038C104.782,69.706,104.755,69.96,104.725,70.214Zm-77.973-.838q-.036-.383-.065-.768l.382-.029q.029.381.065.76ZM104.9,68.3l-.382-.026q.026-.379.044-.76l.382.018Q104.928,67.919,104.9,68.3Zm-78.284-.845q-.017-.384-.028-.77l.383-.01q.01.382.028.763Zm78.367-1.074-.383-.008q.007-.376.007-.753l.383-.008C104.991,65.876,104.989,66.129,104.984,66.382Zm-78.026-.85h-.383q0-.385.009-.769l.383.008Q26.959,65.15,26.958,65.532Zm77.634-1.062q-.011-.381-.029-.761l.382-.019q.02.384.03.769Zm-77.583-.842-.382-.02q.02-.385.046-.768l.382.026C27.037,63.12,27.021,63.374,27.008,63.628Zm77.482-1.059q-.03-.381-.067-.759l.381-.037q.037.382.067.766Zm-77.34-.84-.381-.038q.038-.384.083-.765l.38.045Q27.189,61.349,27.151,61.729ZM104.3,60.674q-.048-.378-.1-.755l.379-.056q.056.38.1.763Zm-76.911-.835-.379-.056q.057-.381.121-.76l.378.064Q27.442,59.462,27.386,59.839Zm76.624-1.048q-.067-.375-.14-.748l.375-.074q.075.377.142.757Zm-76.3-.828-.376-.075q.075-.377.159-.753l.374.083Q27.788,57.589,27.713,57.963Zm75.918-1.038q-.085-.372-.177-.741l.371-.093q.093.373.179.748Zm-75.5-.819-.371-.093q.094-.374.195-.745l.369.1Q28.226,55.736,28.132,56.106Zm75.028-1.026q-.1-.368-.214-.731l.366-.111q.112.368.216.739Zm-74.518-.809-.366-.112q.113-.368.232-.734l.364.119Q28.754,53.907,28.643,54.271ZM102.6,53.256q-.122-.362-.251-.722l.36-.13q.131.364.253.73Zm-73.355-.792-.36-.13q.13-.362.268-.721l.358.137Q29.373,52.105,29.243,52.464Zm72.7-1q-.139-.356-.286-.709l.354-.147q.148.356.289.716Zm-72.014-.768-.353-.147q.148-.354.3-.7l.35.154Q30.078,50.342,29.931,50.693Zm71.274-.992q-.157-.349-.32-.693l.346-.164q.165.349.324.7Zm-70.5-.741-.346-.165q.165-.346.336-.689l.343.171Q30.868,48.616,30.7,48.959Zm69.674-.979q-.173-.34-.353-.677l.337-.181q.183.339.358.683Zm-68.816-.715-.337-.181q.181-.338.37-.672l.333.188Q31.743,46.93,31.563,47.265ZM99.47,46.3q-.19-.331-.387-.658l.328-.2q.2.33.391.665ZM32.5,45.614l-.328-.2q.2-.328.4-.654l.324.2Q32.7,45.288,32.5,45.614Zm65.976-.941q-.206-.322-.418-.638l.318-.213q.214.32.422.644ZM33.523,44.01l-.318-.213q.214-.319.434-.633l.314.219Q33.736,43.694,33.523,44.01Zm63.886-.915q-.222-.311-.449-.616l.307-.229q.23.309.454.623Zm-62.788-.637-.307-.229q.23-.308.465-.612l.3.234Q34.849,42.152,34.622,42.457Zm61.643-.887q-.236-.3-.478-.593l.3-.243q.244.3.482.6Zm-60.47-.611-.3-.244q.244-.3.494-.588l.291.249Q36.037,40.666,35.795,40.96Zm59.253-.855q-.251-.287-.507-.569l.284-.257q.258.285.512.575ZM37.04,39.52l-.283-.257q.258-.285.523-.564l.278.263Q37.3,39.238,37.04,39.52ZM93.76,38.7q-.264-.275-.533-.544l.271-.271q.272.272.539.549Zm-55.406-.559-.271-.271q.272-.272.55-.538l.265.276Q38.624,37.874,38.354,38.143Zm54.053-.781q-.277-.261-.559-.517l.257-.284q.285.258.565.522ZM39.735,36.83l-.257-.284q.285-.258.575-.511l.252.289Q40.017,36.575,39.735,36.83Zm51.256-.74q-.289-.247-.583-.489l.243-.3q.3.244.589.494Zm-49.813-.5-.243-.3q.3-.244.6-.482l.237.3Q41.472,35.345,41.177,35.587Zm48.337-.7q-.3-.233-.606-.46l.228-.307q.309.229.613.464ZM42.68,34.415l-.228-.308q.31-.229.623-.453l.222.312Q42.986,34.187,42.68,34.415Zm45.3-.651q-.312-.218-.628-.43l.213-.318q.319.214.634.433Zm-43.744-.446L44.026,33q.32-.214.645-.422l.206.322Q44.555,33.1,44.238,33.317Zm42.158-.6q-.322-.2-.648-.4l.2-.328q.329.2.654.4ZM45.85,32.3l-.2-.328q.33-.2.665-.39l.19.332Q46.177,32.1,45.85,32.3Zm38.913-.554q-.331-.185-.666-.365l.181-.338q.339.181.673.369ZM47.51,31.356l-.181-.338q.339-.181.683-.357l.174.342Q47.845,31.176,47.51,31.356Zm35.575-.5q-.34-.169-.683-.332l.164-.346q.347.164.69.335ZM49.214,30.5l-.163-.346q.348-.165.7-.323l.157.349Q49.559,30.336,49.214,30.5Zm32.15-.45q-.347-.152-.7-.3l.147-.353q.355.147.706.3Zm-30.4-.323-.146-.353q.356-.148.716-.288l.139.356Q51.313,29.58,50.96,29.726Zm28.649-.4q-.355-.136-.714-.265l.129-.36q.363.13.722.267ZM52.742,29.04l-.129-.361q.363-.13.73-.252l.122.363Q53.1,28.912,52.742,29.04ZM77.813,28.7q-.361-.118-.726-.229L77.2,28.1q.368.112.734.231Zm-23.255-.252-.111-.366q.368-.111.739-.215l.1.369Q54.922,28.334,54.558,28.443Zm21.43-.292q-.367-.1-.737-.193l.093-.371q.374.094.745.194Zm-19.594-.212-.092-.371q.373-.092.748-.178l.085.374Q56.763,27.847,56.394,27.939ZM74.139,27.7q-.371-.082-.745-.156l.075-.376q.378.075.753.157Zm-15.885-.172-.074-.376q.377-.075.756-.141l.067.377Q58.626,27.452,58.253,27.526Zm14.016-.19c-.25-.042-.5-.082-.753-.119l.056-.379q.381.056.76.12ZM60.13,27.2l-.055-.379q.38-.055.762-.1l.048.38Q60.506,27.149,60.13,27.2Zm10.255-.139q-.378-.044-.758-.082l.038-.381q.383.038.765.083Zm-8.364-.09-.037-.381q.382-.037.766-.066l.029.382Q62.4,26.94,62.021,26.976Zm6.468-.087c-.253-.018-.507-.033-.761-.045l.019-.382q.385.019.768.045ZM63.92,26.84l-.018-.382q.384-.018.769-.029l.01.383Q64.3,26.822,63.92,26.84Zm2.666-.036q-.38-.008-.762-.008v-.383q.385,0,.77.008Z"
                    transform="translate(-24.612 -24.449)"
                    fill="#161615"
                />
                <path
                    id="Path_225"
                    data-name="Path 225"
                    d="M97.214,84.784l-.321-.208q.206-.32.407-.644l.325.2Q97.422,84.462,97.214,84.784ZM27.594,84.1q-.2-.327-.4-.658l.329-.2q.195.328.4.652Zm70.626-.957-.331-.193q.192-.328.377-.662l.334.186Q98.413,82.814,98.22,83.146Zm-71.6-.7q-.187-.336-.368-.676l.338-.18q.179.337.364.67Zm67.53-.8-.5-.576.288-.252.5.576ZM31.043,81.6l-.271-.271.061-.061.271.271Zm68.1-.134-.339-.177q.175-.338.346-.679l.342.17Q99.326,81.122,99.147,81.462Zm-73.424-.72q-.172-.345-.336-.693l.346-.164q.164.345.333.686Zm6.193-.019-.271-.271.541-.542.271.271Zm60.972-.515-.5-.577.289-.252.5.577ZM100,79.737l-.348-.161q.16-.345.313-.694l.351.154Q100.157,79.389,100,79.737ZM33.269,79.37,33,79.1l.541-.541.271.271ZM24.907,79q-.154-.352-.3-.708l.353-.147q.147.353.3.7Zm66.722-.234-.111-.127.288-.252.111.127Zm9.133-.791-.355-.144q.144-.352.281-.708l.357.138Q100.907,77.619,100.762,77.974Zm-76.587-.753q-.138-.359-.27-.721l.36-.131q.13.358.267.714Zm77.27-1.043-.361-.128q.127-.358.247-.721l.364.121Q101.573,75.816,101.445,76.178Zm-77.918-.769q-.121-.365-.235-.733l.366-.114q.113.365.233.726Zm78.515-1.057-.366-.111q.11-.364.212-.73l.369.1Q102.154,73.984,102.042,74.352Zm-79.077-.783q-.1-.37-.2-.743l.371-.1q.1.369.2.737Zm79.589-1.07-.372-.093q.093-.369.178-.74l.373.086Q102.647,72.127,102.554,72.5Zm-80.063-.8q-.086-.374-.165-.752l.375-.078q.078.374.163.745Zm80.486-1.079-.375-.075q.075-.373.143-.748l.377.069Q103.052,70.249,102.977,70.624ZM22.1,69.819q-.068-.378-.13-.759L22.352,69q.061.377.129.752Zm81.208-1.085-.378-.058q.057-.375.108-.753l.379.051Q103.37,68.354,103.312,68.733Zm-81.506-.816q-.051-.381-.094-.765l.381-.043q.043.38.093.758Zm81.752-1.089-.381-.04c.026-.252.05-.5.073-.758l.381.034Q103.6,66.447,103.559,66.828ZM21.6,66q-.033-.383-.059-.768l.382-.025q.025.381.058.761Zm82.117-1.09-.382-.022q.022-.38.038-.76l.383.015Q103.737,64.531,103.715,64.914Zm-82.236-.832q-.015-.385-.023-.77l.383-.008q.007.382.023.763Zm82.305-1.087-.383,0q0-.266,0-.534v-.228l.383,0v.23Q103.788,62.726,103.784,62.995Zm-81.954-.836-.383,0q0-.385.013-.768l.383.01Q21.834,61.777,21.831,62.159Zm81.551-1.074q-.013-.381-.032-.761l.382-.02q.02.383.033.768Zm-81.494-.83-.382-.021q.021-.384.048-.767l.382.028Q21.909,59.874,21.888,60.255Zm81.387-1.072q-.03-.38-.067-.759l.381-.038q.037.382.068.766Zm-81.242-.827-.381-.038q.038-.384.083-.765l.381.045Q22.071,57.976,22.033,58.356Zm81.047-1.067q-.048-.379-.1-.755l.379-.055q.055.38.1.762Zm-80.814-.823-.379-.056q.056-.381.119-.76l.377.063Q22.322,56.088,22.267,56.465ZM102.8,55.4q-.065-.376-.138-.749l.376-.073q.073.377.139.757Zm-80.21-.817-.376-.074q.074-.378.155-.753l.374.081Q22.661,54.214,22.588,54.588Zm79.839-1.052q-.083-.372-.173-.742l.373-.09c.06.248.118.5.174.749ZM23,52.728l-.372-.091q.091-.374.19-.745l.37.1Q23.088,52.357,23,52.728Zm78.972-1.04q-.1-.368-.208-.733l.367-.108q.109.369.21.74Zm-78.475-.8-.367-.108q.109-.369.225-.736l.365.116Q23.6,50.523,23.493,50.889Zm77.931-1.026c-.079-.243-.16-.484-.243-.725l.362-.126q.126.365.245.733Zm-77.349-.787-.361-.126q.126-.364.259-.724l.36.132Q24.2,48.715,24.075,49.075Zm76.717-1.016q-.135-.358-.276-.713l.355-.142q.144.358.28.72Zm-76.05-.768-.355-.142q.142-.356.292-.708l.353.149Q24.884,46.938,24.742,47.291Zm75.333-1c-.1-.234-.2-.467-.31-.7l.349-.159q.159.351.312.706Zm-74.586-.741-.348-.159q.159-.349.325-.694l.345.165Q25.647,45.2,25.489,45.547Zm73.788-.993q-.168-.343-.342-.683l.341-.175q.176.343.345.69Zm-72.959-.716-.34-.175q.175-.342.357-.679l.337.181Q26.492,43.5,26.318,43.837ZM98.4,42.859q-.183-.335-.373-.666l.332-.19q.192.334.377.672Zm-71.173-.691-.332-.191q.191-.333.389-.662l.328.2Q27.415,41.838,27.225,42.168Zm70.216-.96q-.2-.326-.4-.647l.323-.206q.207.324.408.654Zm-69.231-.666-.323-.206q.206-.324.419-.643l.319.212Q28.415,40.222,28.211,40.542Zm68.2-.937q-.214-.316-.434-.627l.313-.221q.221.315.438.633Zm-67.138-.641-.313-.221q.222-.314.449-.623l.309.227Q29.49,38.653,29.271,38.963ZM95.3,38.052q-.228-.306-.462-.606l.3-.235q.237.3.467.612Zm-64.9-.617-.3-.235q.236-.3.477-.6l.3.241Q30.637,37.134,30.4,37.435Zm63.723-.882q-.242-.3-.49-.584l.291-.249q.25.293.494.59Zm-62.52-.592-.291-.249q.25-.292.5-.579l.286.254Q31.854,35.67,31.607,35.96Zm61.274-.851q-.256-.283-.516-.56l.279-.262q.263.28.521.566Zm-60-.567L32.6,34.28q.264-.28.531-.556l.274.267Q33.138,34.265,32.877,34.542Zm58.694-.816q-.269-.27-.542-.536l.267-.275q.276.268.546.541Zm-57.359-.542-.266-.275q.276-.268.557-.53l.261.279Q34.487,32.919,34.213,33.184ZM90.2,32.406q-.28-.257-.565-.51l.253-.287q.288.254.571.515ZM35.611,31.89l-.254-.287q.288-.255.581-.5l.248.291Q35.9,31.637,35.611,31.89Zm53.157-.739q-.292-.244-.588-.483l.24-.3q.3.241.594.488Zm-51.7-.49-.24-.3q.3-.242.6-.477l.234.3Q37.363,30.422,37.067,30.661Zm50.213-.7q-.3-.23-.61-.455L86.9,29.2c.207.151.412.3.616.459Zm-48.7-.463-.226-.309q.311-.227.626-.448l.22.313Q38.887,29.276,38.579,29.5Zm47.16-.653q-.314-.215-.631-.426l.212-.319q.32.212.636.43Zm-45.6-.436-.211-.319q.321-.212.646-.419l.205.323Q40.463,28.2,40.144,28.412Zm44-.606q-.323-.2-.649-.4l.2-.328q.33.2.656.4ZM41.76,27.4l-.2-.329q.331-.2.665-.388l.19.332Q42.088,27.2,41.76,27.4Zm40.752-.558q-.331-.185-.667-.365l.181-.338q.338.181.672.369Zm-39.091-.381-.181-.338q.34-.181.683-.357l.174.341Q43.758,26.279,43.421,26.458Zm37.412-.509q-.339-.169-.683-.333l.165-.345q.347.165.69.337ZM45.125,25.6l-.165-.346q.348-.165.7-.325l.158.349Q45.47,25.434,45.125,25.6Zm33.99-.458q-.346-.153-.7-.3l.148-.353q.354.149.7.3Zm-32.246-.321-.148-.353q.355-.149.714-.292l.141.356Q47.221,24.672,46.869,24.819Zm30.493-.406q-.355-.138-.713-.269l.131-.36q.361.133.72.271Zm-28.715-.291-.131-.36q.362-.132.728-.258l.124.362Q49.006,23.991,48.647,24.122Zm26.924-.356q-.361-.121-.725-.235l.114-.365q.368.115.732.237ZM50.459,23.51l-.114-.365q.366-.115.736-.222l.107.368Q50.822,23.4,50.459,23.51ZM73.751,23.2q-.366-.1-.735-.2l.1-.37q.373.1.742.2ZM52.29,22.986l-.1-.37q.372-.1.746-.188l.09.373Q52.658,22.889,52.29,22.986Zm19.616-.257q-.371-.086-.744-.166l.08-.374q.377.08.751.167Zm-17.763-.18-.079-.374q.376-.079.754-.152l.072.376Q54.515,22.47,54.143,22.549Zm15.9-.208q-.374-.069-.751-.131l.062-.378q.38.063.758.132ZM56.016,22.2l-.061-.378q.379-.061.76-.116l.054.379Q56.391,22.137,56.016,22.2Zm12.145-.158q-.377-.051-.756-.1l.044-.38q.384.045.764.1Zm-10.258-.1-.044-.38q.381-.044.765-.081l.036.381Q58.28,21.893,57.9,21.936Zm8.365-.108q-.379-.034-.76-.06l.027-.382q.384.027.766.06ZM59.8,21.763l-.026-.382q.383-.026.768-.046l.019.382Q60.179,21.737,59.8,21.763Zm4.568-.06q-.38-.016-.76-.025l.009-.383q.385.009.767.025ZM61.7,21.677l-.009-.383q.384-.009.769-.01l0,.383Q62.082,21.669,61.7,21.677Z"
                    transform="translate(-21.448 -21.284)"
                    fill="#161615"
                />
                <path
                    id="Path_226"
                    data-name="Path 226"
                    d="M100.788,88.314l-.283-.324.1-.091-.013-.008q.153-.254.3-.511l.331.193c-.1.173-.2.345-.306.516Zm-62.832-.7-.271-.271.542-.542.271.271Zm-1.011-.036q-.194-.333-.38-.669l.335-.186q.185.334.376.663Zm62.8-.456-.48-.548.12-.154.144-.126.5.575Zm2.046-.56-.337-.182q.181-.335.356-.674l.34.175Q101.977,86.228,101.794,86.566Zm-62.484-.3-.271-.271.541-.541.271.271Zm-3.289-.37q-.176-.342-.345-.688l.344-.168q.167.343.342.681Zm62.467-.21-.5-.577.288-.252.5.577Zm4.176-.833-.345-.165q.163-.343.319-.691l.349.157Q102.829,84.5,102.664,84.851Zm-67.479-.69q-.158-.351-.309-.706l.352-.15q.149.351.306.7Zm68.259-1.069-.354-.146q.145-.351.283-.706l.356.138Q103.591,82.737,103.444,83.092Zm-69-.706q-.14-.358-.272-.721l.36-.131q.131.358.269.713Zm69.691-1.09-.361-.127q.127-.358.246-.721l.364.121Q104.259,80.934,104.132,81.3Zm-70.341-.721q-.121-.365-.234-.734l.366-.113q.113.365.232.726Zm70.934-1.109-.367-.108q.108-.365.208-.732l.369.1Q104.833,79.1,104.724,79.466Zm-71.49-.735q-.1-.371-.2-.745l.371-.093q.093.37.193.737Zm71.987-1.123-.373-.09q.089-.369.17-.742l.374.081Q105.312,77.235,105.221,77.608Zm-72.445-.746q-.082-.376-.156-.755L33,76.034q.074.374.155.747Zm72.844-1.135-.376-.07q.069-.374.131-.75l.378.062Q105.69,75.349,105.62,75.727Zm-73.2-.756q-.062-.38-.116-.762l.379-.054q.054.378.115.754Zm73.506-1.143-.38-.05c.033-.251.064-.5.092-.755l.381.042Q105.971,73.448,105.921,73.828Zm-73.767-.764q-.042-.382-.077-.766l.381-.034q.034.381.076.759Zm73.968-1.148-.381-.03q.03-.378.052-.759l.382.023Q106.153,71.534,106.123,71.916Zm-74.132-.77q-.022-.384-.038-.77l.382-.015q.015.382.037.762ZM106.227,70l-.383-.011c.007-.253.011-.507.014-.761l.383,0Q106.237,69.614,106.227,70Zm-74.3-.775v-.3q0-.237,0-.473l.383,0q0,.234,0,.468v.294Zm73.923-1.139q-.008-.381-.025-.761l.383-.017q.017.384.025.77Zm-73.507-.767L31.96,67.3q.017-.385.041-.768l.382.024Q32.359,66.934,32.343,67.315Zm73.415-1.134q-.028-.38-.064-.758l.381-.037c.024.255.046.511.065.767Zm-73.285-.765-.381-.036q.036-.384.08-.765l.38.044C32.524,64.91,32.5,65.163,32.473,65.416Zm73.1-1.13q-.048-.378-.1-.754l.379-.056q.056.38.1.763ZM32.7,63.526l-.379-.056q.056-.381.12-.76l.377.064Q32.757,63.149,32.7,63.526ZM105.283,62.4q-.067-.376-.142-.748l.375-.075q.076.377.143.756Zm-72.256-.754-.375-.075q.076-.378.159-.753l.374.083Q33.1,61.277,33.027,61.651ZM104.9,60.54q-.086-.372-.181-.74l.371-.095q.1.373.183.748Zm-71.448-.745L33.08,59.7q.1-.373.2-.744l.369.1Q33.545,59.425,33.451,59.795Zm70.968-1.1q-.106-.366-.219-.729l.366-.114q.114.367.221.737ZM33.97,57.963l-.366-.114q.115-.368.237-.732l.363.122Q34.083,57.6,33.97,57.963Zm69.872-1.083q-.125-.362-.257-.719l.359-.133q.134.362.261.727Zm-69.258-.719-.359-.133q.134-.361.275-.719l.356.14Q34.716,55.8,34.583,56.161Zm68.586-1.069q-.144-.354-.294-.7l.351-.151q.153.354.3.712Zm-67.881-.7-.351-.152q.152-.352.31-.7l.348.159Q35.439,54.048,35.289,54.4Zm67.117-1.053q-.161-.346-.331-.688l.343-.17q.171.346.335.7Zm-66.321-.67-.343-.169q.17-.345.347-.685l.34.177Q36.253,52.333,36.084,52.673Zm65.468-1.036q-.18-.337-.366-.67l.334-.187q.188.337.37.677Zm-64.583-.645-.334-.187q.188-.335.382-.666l.33.194Q37.154,50.661,36.968,50.993Zm63.642-1.014q-.2-.327-.4-.649l.324-.2q.205.326.4.656ZM37.938,49.36l-.324-.2q.205-.325.416-.645l.32.211Q38.141,49.037,37.938,49.36Zm61.647-.988q-.212-.316-.433-.628l.313-.221q.222.315.438.634Zm-60.593-.595-.313-.221q.221-.315.449-.624l.309.227Q39.212,47.466,38.992,47.777Zm59.486-.957q-.23-.3-.465-.6l.3-.237q.238.3.469.61Zm-58.352-.569-.3-.237q.237-.3.48-.6l.3.242Q40.361,45.952,40.127,46.251Zm57.167-.923q-.244-.292-.5-.579l.289-.252q.253.29.5.585Zm-55.955-.544-.288-.251q.252-.291.511-.575l.283.257Q41.589,44.5,41.339,44.784Zm54.7-.884q-.26-.279-.524-.552l.275-.266q.267.277.529.559Zm-53.409-.519-.276-.266q.267-.277.54-.548l.27.271Q42.89,43.108,42.625,43.382ZM94.7,42.539q-.272-.265-.551-.525l.261-.281q.282.262.558.531Zm-50.721-.492-.261-.28q.281-.262.568-.52l.255.285Q44.26,41.787,43.982,42.047Zm49.322-.8q-.287-.25-.578-.5l.247-.293q.293.248.583.5Zm-47.9-.466-.247-.292q.295-.248.594-.49l.24.3Q45.7,40.538,45.407,40.783Zm46.435-.75q-.3-.235-.6-.465l.231-.305q.306.231.608.47Zm-44.947-.439-.231-.305q.307-.232.618-.459l.225.31Q47.2,39.364,46.894,39.594Zm43.424-.7q-.31-.22-.625-.433l.215-.317q.318.215.632.438Zm-41.876-.411-.216-.317q.319-.217.642-.426l.209.321Q48.758,38.268,48.443,38.483Zm40.3-.647q-.321-.2-.646-.4l.2-.327q.329.2.653.4Zm-38.693-.383-.2-.327q.329-.2.663-.393l.192.331Q50.373,37.255,50.047,37.452Zm37.062-.593q-.331-.186-.665-.366l.181-.337q.338.181.672.37ZM51.7,36.506l-.181-.337q.339-.182.683-.358l.174.341Q52.039,36.326,51.7,36.506Zm33.728-.536q-.339-.168-.683-.331l.163-.346q.348.164.691.334Zm-32.025-.323-.163-.346q.349-.164.7-.322l.157.35Q53.751,35.485,53.406,35.648Zm30.3-.477q-.347-.151-.7-.3l.145-.354q.355.146.707.3Zm-28.557-.292-.145-.354q.357-.146.717-.285l.138.357Q55.505,34.733,55.152,34.878Zm26.795-.419q-.357-.133-.716-.259l.126-.361q.364.127.723.261ZM56.938,34.2l-.126-.361q.364-.127.732-.247l.119.364Q57.3,34.075,56.938,34.2Zm23.209-.361q-.362-.115-.729-.222l.107-.368q.37.108.737.224Zm-21.393-.222-.108-.368q.369-.108.741-.208l.1.37Q59.118,33.512,58.753,33.618Zm19.563-.3q-.368-.095-.739-.183l.088-.372q.375.088.747.185Zm-17.722-.183-.088-.372q.374-.089.751-.17l.08.374Q60.964,33.045,60.594,33.132Zm15.868-.245q-.373-.076-.748-.144l.069-.377q.379.069.755.146Zm-14-.144-.069-.377q.378-.069.758-.13l.061.378Q62.831,32.674,62.457,32.743Zm12.13-.187q-.376-.057-.754-.105l.048-.38q.382.049.763.106Zm-10.249-.105-.049-.38q.381-.049.764-.09l.041.381Q64.715,32.4,64.338,32.451Zm8.36-.128q-.378-.037-.759-.066l.029-.382q.385.03.767.067Zm-6.466-.066-.029-.382c.255-.02.511-.036.768-.051l.022.382Q66.611,32.227,66.232,32.256Zm4.567-.07q-.38-.018-.761-.027l.01-.383q.386.01.769.028Zm-2.666-.027-.01-.383q.384-.01.769-.011l0,.383Q68.513,32.15,68.133,32.159Z"
                    transform="translate(-27.914 -27.752)"
                    fill="#161615"
                />
                <path
                    id="Path_227"
                    data-name="Path 227"
                    d="M102.578,89.912l-.176-.2.128-.135-.15-.087q.182-.313.357-.631l.335.185q-.177.321-.361.638Zm-60.147-.5-.271-.271L42.7,88.6l.271.271Zm-.981-.222q-.188-.336-.368-.676l.338-.18q.179.337.364.669Zm60.173-.371-.5-.577.288-.252.5.577Zm1.992-.794-.341-.174q.173-.339.339-.682l.345.167Q103.789,87.681,103.615,88.023Zm-63.057-.54q-.169-.346-.33-.7l.348-.16q.16.346.327.688Zm63.883-1.2-.35-.155q.154-.348.3-.7l.354.147C104.646,85.816,104.546,86.052,104.441,86.286Zm-64.68-.555q-.149-.355-.292-.713l.356-.141q.14.354.288.7Zm65.41-1.226-.358-.136q.134-.355.261-.715l.361.128Q105.307,84.146,105.172,84.506Zm-66.11-.568q-.13-.362-.252-.728l.363-.121q.121.362.249.72Zm66.741-1.25-.365-.116q.115-.362.221-.728l.368.107Q105.919,82.322,105.8,82.688Zm-67.341-.579q-.11-.369-.211-.741l.369-.1q.1.368.209.732Zm67.871-1.271-.371-.095q.094-.368.181-.739l.372.088Q106.428,80.466,106.333,80.838Zm-68.368-.589q-.09-.374-.171-.752l.374-.08q.08.373.168.743Zm68.795-1.287-.375-.075q.073-.372.14-.748l.377.066Q106.835,78.586,106.76,78.962Zm-69.19-.6q-.068-.379-.129-.76l.378-.06q.06.377.127.752Zm69.514-1.3-.379-.054q.054-.376.1-.754l.38.046C107.152,76.558,107.119,76.812,107.083,77.066Zm-69.8-.6q-.048-.382-.087-.766l.381-.039q.039.38.086.757ZM107.3,75.155l-.381-.033q.033-.378.057-.758l.382.025Q107.335,74.773,107.3,75.155Zm-70.21-.61q-.026-.384-.045-.769l.382-.018q.018.381.045.761Zm70.325-1.311-.383-.012q.012-.379.017-.761l.383,0Q107.429,72.852,107.417,73.235ZM37.01,72.622q0-.281,0-.564v-.207l.383,0v.2c0,.186,0,.372,0,.558Zm70.035-1.3q-.008-.381-.024-.761l.383-.016q.016.384.024.77Zm-69.631-.608-.382-.015q.014-.385.038-.769l.382.023Q37.429,70.331,37.414,70.712Zm69.54-1.294q-.028-.38-.065-.758l.381-.037q.037.382.066.767Zm-69.417-.606-.381-.035q.036-.384.079-.766l.38.044Q37.573,68.433,37.538,68.813Zm69.223-1.287q-.049-.378-.106-.754l.378-.058q.058.38.108.762Zm-69-.6-.379-.056q.056-.382.121-.76l.378.064Q37.82,66.546,37.764,66.924Zm68.7-1.278q-.07-.375-.147-.747l.374-.078q.079.376.149.755Zm-68.37-.6-.375-.077q.078-.378.162-.752l.374.085Q38.17,64.676,38.094,65.049Zm67.971-1.264q-.091-.37-.188-.738l.37-.1q.1.371.19.745ZM38.526,63.2l-.37-.1q.1-.373.2-.743l.368.105Q38.623,62.827,38.526,63.2Zm67.038-1.247q-.111-.366-.23-.729l.364-.118q.119.367.232.737Zm-66.5-.58-.364-.117q.118-.367.244-.73l.362.125Q39.176,61.006,39.059,61.369Zm65.9-1.231c-.088-.239-.177-.478-.27-.714l.356-.139q.14.36.273.723Zm-65.268-.564-.358-.137q.138-.36.284-.716l.355.145Q39.829,59.218,39.692,59.574Zm64.565-1.211q-.15-.351-.308-.7l.348-.159c.107.234.21.47.312.706ZM40.421,57.82l-.349-.157q.157-.35.322-.7l.346.164Q40.577,57.474,40.421,57.82Zm63.038-1.19q-.169-.342-.346-.68l.339-.178q.179.342.35.688Zm-62.214-.52-.34-.175q.176-.342.359-.679l.337.183Q41.42,55.773,41.245,56.11Zm61.322-1.165q-.188-.333-.382-.66l.329-.2q.2.331.387.667Zm-60.405-.5-.33-.194q.194-.331.4-.658l.326.2Q42.354,54.119,42.162,54.447Zm59.422-1.135q-.205-.321-.417-.637l.318-.213q.214.32.422.645Zm-58.416-.476-.319-.212q.212-.32.431-.636l.314.219Q43.378,52.518,43.168,52.836Zm57.346-1.1q-.222-.309-.451-.614l.306-.23q.231.308.457.62Zm-56.253-.455-.307-.229q.23-.308.466-.612l.3.235Q44.488,50.975,44.261,51.281Zm55.1-1.06q-.239-.3-.484-.588l.293-.247q.248.295.49.594Zm-53.922-.434-.294-.245q.246-.3.5-.586l.289.251Q45.681,49.494,45.438,49.787Zm52.688-1.015q-.255-.284-.515-.561l.279-.262q.264.28.521.567Zm-51.431-.413-.281-.261q.262-.281.53-.558l.275.266Q46.953,48.079,46.694,48.358Zm50.12-.967q-.269-.269-.544-.532l.264-.277q.279.266.551.538ZM48.026,47l-.265-.276q.277-.267.559-.528l.26.281Q48.3,46.735,48.026,47Zm47.406-.915q-.284-.253-.573-.5l.249-.291q.293.25.579.507Zm-46-.37-.251-.289q.291-.252.588-.5l.244.295Q49.719,45.465,49.431,45.715Zm44.548-.859q-.3-.237-.6-.469l.233-.3q.3.234.6.474ZM50.9,44.508l-.234-.3q.3-.236.614-.466l.228.308Q51.205,44.275,50.9,44.508Zm41.56-.8q-.309-.221-.623-.435l.216-.316q.317.217.63.44Zm-40.023-.325-.218-.315q.317-.219.639-.431l.211.32Q52.754,43.166,52.441,43.383Zm38.447-.738q-.32-.2-.646-.4l.2-.328q.329.2.653.405Zm-36.851-.3-.2-.327q.328-.2.662-.4l.193.331Q54.362,42.143,54.037,42.343Zm35.22-.673q-.331-.187-.666-.365l.18-.338q.339.181.673.369Zm-33.569-.278-.182-.337q.339-.183.683-.359l.175.34Q56.025,41.21,55.689,41.391Zm31.889-.606q-.34-.168-.685-.328l.162-.347q.348.163.692.331Zm-30.186-.254-.163-.346q.349-.165.7-.322l.155.35Q57.736,40.368,57.392,40.531Zm28.462-.536q-.349-.149-.7-.29l.143-.355q.355.142.708.292Zm-26.715-.229-.144-.355q.358-.145.719-.283l.136.358Q59.493,39.623,59.139,39.766ZM84.085,39.3q-.358-.129-.719-.251l.123-.363q.365.123.726.254Zm-23.158-.2-.124-.362q.365-.125.733-.242l.116.365Q61.288,38.974,60.927,39.1Zm21.351-.4q-.364-.11-.732-.211l.1-.369q.371.1.74.214Zm-19.532-.17-.1-.369q.37-.1.743-.2l.1.371Q63.112,38.426,62.747,38.53Zm17.7-.328q-.369-.09-.742-.171l.082-.374q.376.083.75.173Zm-15.85-.138-.083-.374q.374-.084.753-.16l.075.376Q64.963,37.981,64.591,38.064Zm13.989-.259q-.373-.069-.75-.13l.062-.378q.38.062.758.132Zm-12.121-.1-.063-.377q.378-.063.761-.118l.054.379Q66.834,37.638,66.459,37.7ZM76.7,37.511q-.377-.048-.756-.089l.04-.381q.384.041.765.09Zm-8.355-.072-.042-.381c.255-.029.51-.054.766-.077l.034.381Q68.722,37.4,68.345,37.439Zm6.462-.119q-.378-.028-.76-.047l.02-.382q.385.02.768.048Zm-4.565-.039L70.22,36.9q.384-.021.769-.035l.013.382Q70.621,37.26,70.241,37.281Zm2.664-.048q-.342-.007-.685-.007h-.077v-.383h.077q.347,0,.692.007Z"
                    transform="translate(-31.05 -30.886)"
                    fill="#161615"
                />
            </g>
            <g
                id="Group_2928"
                data-name="Group 2928"
                transform="translate(20.568 67.849)"
            >
                <path
                    id="Path_228"
                    data-name="Path 228"
                    d="M60.1,183.274c-.877-.018-1.752-.076-2.625-.152s-1.73-.174-2.592-.293q-2.258-.312-4.479-.825a48.506,48.506,0,0,1-19.851-9.751,45.059,45.059,0,0,1-6.833-6.975,3.826,3.826,0,0,1-.364-.56,1.473,1.473,0,0,1,.173-1.768q.428-.516.857-1.031.937-1.12,1.877-2.24c.047-.056.089-.1.03-.184a52.369,52.369,0,0,1-4.435-8.481c-.422-.985-.82-1.978-1.217-2.973-.02-.05-.018-.112-.075-.143v-.172c.1-.111.2-.086.314-.009q1.985,1.336,3.974,2.668l3.361,2.258c.037.025.076.047.123.076l.592-3.036q.42-2.151.839-4.3.217-1.109.435-2.218c.008-.039.019-.078.027-.117a.147.147,0,0,1,.15-.136c.1,0,.144.054.164.142.09.377.175.756.27,1.132A30.232,30.232,0,0,0,36.3,155.521a28.927,28.927,0,0,0,5.4,5.293,2.69,2.69,0,0,1,.224.187.952.952,0,0,1,.121,1.38c-.222.291-.468.564-.705.843-.545.642-1.088,1.287-1.64,1.923-.1.118-.073.159.038.237a37.452,37.452,0,0,0,6.426,3.677,38.142,38.142,0,0,0,7.551,2.482,39.292,39.292,0,0,0,3.887.64,38.242,38.242,0,0,0,5.734.206,37.249,37.249,0,0,0,3.983-.364,37.934,37.934,0,0,0,16.652-6.635c.139-.1.123-.149.025-.263-.768-.9-1.539-1.791-2.29-2.7a.953.953,0,0,1,.156-1.486c.656-.529,1.324-1.041,1.955-1.6a28.749,28.749,0,0,0,5.8-7.061,31.026,31.026,0,0,0,3.421-8.649c.041-.178.088-.354.126-.533.02-.1.042-.181.161-.187s.159.094.178.191c.12.611.237,1.222.356,1.833q.422,2.159.844,4.319l.636,3.26c.013.065.029.13.046.209l1.575-1.056q2.935-1.971,5.869-3.943c.085-.057.173-.114.265-.044s.058.159.022.25a73.866,73.866,0,0,1-4,8.773c-.516.936-1.064,1.853-1.66,2.741a.184.184,0,0,0,.02.27q1.339,1.592,2.669,3.191a1.476,1.476,0,0,1,.16,1.91,9.47,9.47,0,0,1-1.016,1.34,47,47,0,0,1-17.643,13.118,48.548,48.548,0,0,1-8.985,2.885q-2.009.439-4.049.7a50.084,50.084,0,0,1-5,.413l-.894.029H61ZM30.224,155.388a.274.274,0,0,0-.048.032c-1.291,1.754-2.771,3.352-4.154,5.03-.753.915-1.518,1.82-2.276,2.731a.665.665,0,0,0-.189.479,1.622,1.622,0,0,0,.377.865,35.337,35.337,0,0,0,2.618,3.114,46.276,46.276,0,0,0,11.24,8.824,48.533,48.533,0,0,0,10.23,4.291q2.164.628,4.381,1.044c.958.182,1.92.34,2.887.467.815.107,1.635.186,2.455.256q1.482.125,2.968.156a50.811,50.811,0,0,0,5.272-.158c.986-.083,1.969-.185,2.947-.323q1.718-.243,3.417-.607a47.639,47.639,0,0,0,5.506-1.519,48.673,48.673,0,0,0,8.735-3.989,46.291,46.291,0,0,0,8.573-6.426,41.837,41.837,0,0,0,4.192-4.568,5.093,5.093,0,0,0,.709-1.047.771.771,0,0,0-.118-.888c-.6-.705-1.186-1.425-1.783-2.136q-1.07-1.276-2.149-2.546c-.614-.725-1.237-1.443-1.823-2.192-.232-.3-.46-.593-.693-.893-.152.322-.291.634-.445.94A22.191,22.191,0,0,1,89.7,161.13a32.128,32.128,0,0,1-4.74,4.3,37.982,37.982,0,0,1-6.541,3.917,38.913,38.913,0,0,1-12.48,3.473c-.872.091-1.745.16-2.619.191-1.1.038-2.2.037-3.3-.021q-1.569-.082-3.126-.275-1.342-.167-2.667-.431a39.287,39.287,0,0,1-4.162-1.072,38.3,38.3,0,0,1-9.15-4.289,35.664,35.664,0,0,1-4.459-3.366A30.271,30.271,0,0,1,33.72,160.8a23.339,23.339,0,0,1-2.376-3.228A17.146,17.146,0,0,1,30.224,155.388Zm.227-10.159a.362.362,0,0,0-.036.062q-.32,1.652-.639,3.3-.352,1.811-.709,3.621a8.824,8.824,0,0,1-.186.868c-.113.372-.388.459-.723.258-.029-.018-.059-.035-.087-.054q-3.093-2.076-6.187-4.151c-.042-.028-.079-.08-.142-.069-.018.057.014.1.031.136.809,1.983,1.672,3.941,2.652,5.847a41.332,41.332,0,0,0,2.258,3.912c.046.07.066.162.171.036.605-.725,1.222-1.441,1.828-2.166a24.364,24.364,0,0,0,1.816-2.411,1.545,1.545,0,0,1,1.836-.684,2.456,2.456,0,0,1,1.349,1.084,27.658,27.658,0,0,0,3.417,4.289,33.762,33.762,0,0,0,2.967,2.687,6.387,6.387,0,0,0,.806.611.628.628,0,0,0,.862-.137.328.328,0,0,0,.076-.316,1.333,1.333,0,0,0-.543-.688c-.568-.454-1.137-.905-1.685-1.384a29.411,29.411,0,0,1-4.036-4.331,30.463,30.463,0,0,1-4.555-8.59C30.8,146.4,30.624,145.831,30.451,145.229ZM102,149.073a.23.23,0,0,0-.176.072q-2.732,1.831-5.463,3.665c-.279.188-.555.382-.842.557a.42.42,0,0,1-.658-.216,1.788,1.788,0,0,1-.106-.4q-.3-1.551-.6-3.1-.335-1.719-.669-3.438-.094-.48-.188-.957c-.049.008-.046.034-.052.054a31.35,31.35,0,0,1-1.881,4.993,29.771,29.771,0,0,1-8.607,10.721,3.364,3.364,0,0,0-.729.673c-.265.374-.1.655.292.787a.738.738,0,0,0,.711-.2q.946-.728,1.84-1.519a30.154,30.154,0,0,0,2.717-2.7,25.848,25.848,0,0,0,2.387-3.159,3,3,0,0,1,.983-.99,1.666,1.666,0,0,1,1.951.107,2.769,2.769,0,0,1,.471.628,33.962,33.962,0,0,0,2.16,2.774c.464.552.936,1.1,1.419,1.662A57.9,57.9,0,0,0,102,149.073ZM41.161,162.947a1.7,1.7,0,0,1-.66-.286,37.409,37.409,0,0,1-3.735-3.318,26.239,26.239,0,0,1-3.36-4.2,2.8,2.8,0,0,0-.545-.637,1.443,1.443,0,0,0-1.27-.41.922.922,0,0,0-.8.969,1.769,1.769,0,0,0,.189.509,21.315,21.315,0,0,0,3.792,5.476,30.061,30.061,0,0,0,2.244,2.179c.717.633,1.464,1.228,2.229,1.8.068.051.107.064.173-.018.226-.281.465-.551.7-.827Zm41.387-.009c.04.052.056.075.074.1.55.645,1.1,1.287,1.646,1.937.084.1.129.112.234.034a34.733,34.733,0,0,0,2.776-2.3,27.153,27.153,0,0,0,3.6-4.007,17.381,17.381,0,0,0,1.987-3.43.807.807,0,0,0-.271-.959,1.209,1.209,0,0,0-1.4-.052,2.692,2.692,0,0,0-.93.943,26.482,26.482,0,0,1-3.733,4.561,34.325,34.325,0,0,1-2.72,2.42A2.567,2.567,0,0,1,82.549,162.938Z"
                    transform="translate(-20.568 -142.909)"
                    fill="#070b09"
                />
                <path
                    id="Path_229"
                    data-name="Path 229"
                    d="M123.774,248.341l.894.029h-.929Z"
                    transform="translate(-84.239 -207.976)"
                    fill="#8db954"
                />
                <path
                    id="Path_230"
                    data-name="Path 230"
                    d="M130.659,248.37l.894-.029.035.029Z"
                    transform="translate(-88.51 -207.976)"
                    fill="#8db954"
                />
                <path
                    id="Path_231"
                    data-name="Path 231"
                    d="M35.04,175.5a17.143,17.143,0,0,0,1.12,2.179,23.338,23.338,0,0,0,2.376,3.228,30.269,30.269,0,0,0,2.733,2.758,35.669,35.669,0,0,0,4.459,3.366,38.3,38.3,0,0,0,9.15,4.289,39.294,39.294,0,0,0,4.162,1.072q1.324.264,2.667.431,1.559.195,3.126.275c1.1.058,2.2.06,3.3.021.874-.031,1.747-.1,2.619-.191a38.914,38.914,0,0,0,12.48-3.473,37.98,37.98,0,0,0,6.541-3.917,32.125,32.125,0,0,0,4.74-4.3,22.19,22.19,0,0,0,3.358-4.805c.154-.305.293-.618.445-.939.232.3.461.6.693.893.586.748,1.208,1.467,1.823,2.192q1.077,1.271,2.149,2.546c.6.71,1.181,1.43,1.783,2.136a.771.771,0,0,1,.118.888,5.093,5.093,0,0,1-.709,1.047,41.837,41.837,0,0,1-4.192,4.568,46.291,46.291,0,0,1-8.573,6.426,48.673,48.673,0,0,1-8.735,3.989,47.633,47.633,0,0,1-5.506,1.519q-1.7.362-3.417.607c-.979.138-1.961.24-2.947.323a50.815,50.815,0,0,1-5.272.159q-1.485-.029-2.968-.156c-.82-.069-1.64-.149-2.455-.256-.967-.128-1.928-.286-2.887-.467q-2.216-.42-4.381-1.044a48.532,48.532,0,0,1-10.23-4.291,46.275,46.275,0,0,1-11.24-8.824,35.336,35.336,0,0,1-2.618-3.114,1.622,1.622,0,0,1-.377-.865.665.665,0,0,1,.189-.479c.758-.911,1.523-1.816,2.276-2.731,1.383-1.678,2.862-3.276,4.154-5.03A.276.276,0,0,1,35.04,175.5Z"
                    transform="translate(-25.384 -163.02)"
                    fill="#003471"
                />
                <path
                    id="Path_232"
                    data-name="Path 232"
                    d="M32.333,148.968c.173.6.348,1.171.541,1.734a30.464,30.464,0,0,0,4.555,8.59,29.409,29.409,0,0,0,4.036,4.331c.547.479,1.116.93,1.685,1.384a1.333,1.333,0,0,1,.543.688.328.328,0,0,1-.076.316.628.628,0,0,1-.862.137,6.39,6.39,0,0,1-.806-.611,33.763,33.763,0,0,1-2.967-2.687,27.658,27.658,0,0,1-3.417-4.289,2.456,2.456,0,0,0-1.349-1.084,1.545,1.545,0,0,0-1.836.684,24.364,24.364,0,0,1-1.816,2.411c-.606.725-1.222,1.441-1.828,2.166-.1.126-.125.034-.171-.036a41.335,41.335,0,0,1-2.258-3.912c-.98-1.905-1.843-3.864-2.652-5.847-.017-.041-.049-.079-.031-.136.062-.012.1.04.142.069q3.094,2.074,6.187,4.151c.028.019.058.037.087.054.335.2.61.114.723-.258a8.825,8.825,0,0,0,.186-.868q.357-1.81.709-3.621.322-1.652.639-3.3A.362.362,0,0,1,32.333,148.968Z"
                    transform="translate(-22.45 -146.648)"
                    fill="#f27c00"
                />
                <path
                    id="Path_233"
                    data-name="Path 233"
                    d="M200.845,152.861a57.9,57.9,0,0,1-5.046,10.02c-.483-.565-.956-1.11-1.419-1.662a33.96,33.96,0,0,1-2.16-2.774,2.769,2.769,0,0,0-.471-.628,1.666,1.666,0,0,0-1.951-.107,3,3,0,0,0-.983.99,25.849,25.849,0,0,1-2.387,3.159,30.154,30.154,0,0,1-2.717,2.7q-.9.789-1.84,1.519a.738.738,0,0,1-.711.2c-.387-.132-.557-.413-.292-.787a3.364,3.364,0,0,1,.729-.673A29.772,29.772,0,0,0,190.2,154.1a31.353,31.353,0,0,0,1.881-4.993c.006-.021,0-.046.052-.054q.094.477.188.957.334,1.719.669,3.438.3,1.551.6,3.1a1.789,1.789,0,0,0,.106.4.419.419,0,0,0,.658.216c.288-.174.563-.369.842-.557q2.731-1.833,5.463-3.665A.23.23,0,0,1,200.845,152.861Z"
                    transform="translate(-119.417 -146.698)"
                    fill="#f27c00"
                />
                <path
                    id="Path_234"
                    data-name="Path 234"
                    d="M57.626,180.931l-1.047,1.236c-.234.275-.473.546-.7.827-.066.082-.105.069-.173.018-.764-.574-1.511-1.169-2.229-1.8a30.058,30.058,0,0,1-2.244-2.179,21.315,21.315,0,0,1-3.792-5.476,1.769,1.769,0,0,1-.189-.509.922.922,0,0,1,.8-.969,1.443,1.443,0,0,1,1.27.41,2.8,2.8,0,0,1,.545.637,26.239,26.239,0,0,0,3.36,4.2,37.4,37.4,0,0,0,3.735,3.318A1.7,1.7,0,0,0,57.626,180.931Z"
                    transform="translate(-37.033 -160.893)"
                    fill="#1461ac"
                />
                <path
                    id="Path_235"
                    data-name="Path 235"
                    d="M182.459,180.916a2.567,2.567,0,0,0,1.265-.756,34.319,34.319,0,0,0,2.72-2.42,26.48,26.48,0,0,0,3.733-4.561,2.692,2.692,0,0,1,.93-.943,1.209,1.209,0,0,1,1.4.052.807.807,0,0,1,.271.959,17.381,17.381,0,0,1-1.987,3.43,27.153,27.153,0,0,1-3.6,4.007,34.735,34.735,0,0,1-2.776,2.3c-.1.078-.15.067-.234-.034-.543-.65-1.1-1.292-1.646-1.937C182.515,180.991,182.5,180.968,182.459,180.916Z"
                    transform="translate(-120.478 -160.887)"
                    fill="#1461ac"
                />
            </g>
            <g
                id="Group_2929"
                data-name="Group 2929"
                transform="translate(37.225 95.272)"
            >
                <path
                    id="Path_236"
                    data-name="Path 236"
                    d="M64.1,221.852l.01-.02-.032-.016Z"
                    transform="translate(-64.074 -219.029)"
                    fill="#fff"
                />
                <path
                    id="Path_237"
                    data-name="Path 237"
                    d="M70.747,215.134a.323.323,0,0,0,.439-.139.338.338,0,0,0-.608-.289A.323.323,0,0,0,70.747,215.134Z"
                    transform="translate(-68.069 -214.537)"
                    fill="#fff"
                />
                <path
                    id="Path_238"
                    data-name="Path 238"
                    d="M72.5,215.951a.312.312,0,1,0-.175-.425A.323.323,0,0,0,72.5,215.951Z"
                    transform="translate(-69.151 -215.04)"
                    fill="#fff"
                />
                <path
                    id="Path_239"
                    data-name="Path 239"
                    d="M76.611,217.742a.314.314,0,1,0-.188-.419A.322.322,0,0,0,76.611,217.742Z"
                    transform="translate(-71.68 -216.141)"
                    fill="#fff"
                />
                <path
                    id="Path_240"
                    data-name="Path 240"
                    d="M80.151,229.887a.341.341,0,0,0-.443.17.365.365,0,1,0,.443-.17Z"
                    transform="translate(-73.713 -223.996)"
                    fill="#fff"
                />
                <path
                    id="Path_241"
                    data-name="Path 241"
                    d="M74.6,218.067l-.9,3.054a.644.644,0,0,1-.8.4l-.085-.026-.068-.021-.077-.024-.1-.03.239-.761c.022-.136.033-.2.055-.339A1.375,1.375,0,0,0,72.015,219c-.52-.178-.779-.27-1.3-.463l-.216.579c.328.122.493.182.823.3.672.237.931.588.773,1.069l-.234.71c-.861-.284-1.321-.447-2.119-.75l0,0a.681.681,0,0,1-.366-.889l.52-1.325c-.265-.1-.4-.157-.661-.265l-.554,1.355,0,0c-.154.377-.519.465-1.085.256-.247-.125-.294-.368-.136-.729l.6-1.378c-.575-.252-.861-.382-1.43-.653a1.5,1.5,0,0,0-2.039,1l-.436.858c.646.328.983.493,1.647.8l.269-.576c-.409-.19-.612-.288-1.018-.488l.083-.169c.317-.862.8-1.125,1.429-.812.253.119.381.178.635.294l-.5,1.1a1.077,1.077,0,0,0,.484,1.277l.114.049h0l.311.132a1.716,1.716,0,0,0,.385.074,3.04,3.04,0,0,0,.729-.119,1.7,1.7,0,0,0,.63.721l-.008.022.172.065h0l.024.009h0c1.113.423,1.779.652,2.905,1h0l.2.062.017.005h0l.064.02.2.038c.818.028,1.31-.286,1.483-.907L75.047,219C75.142,218.656,74.989,218.35,74.6,218.067Z"
                    transform="translate(-64.126 -215.864)"
                    fill="#fff"
                />
                <path
                    id="Path_242"
                    data-name="Path 242"
                    d="M92.16,221.026,91,225.3c.283.077.425.114.709.187l.91-3.548C92.707,221.6,92.552,221.3,92.16,221.026Z"
                    transform="translate(-80.691 -218.542)"
                    fill="#fff"
                />
                <path
                    id="Path_243"
                    data-name="Path 243"
                    d="M100.077,225.042a.312.312,0,1,0,.128-.609.312.312,0,1,0-.128.609Z"
                    transform="translate(-86.129 -220.64)"
                    fill="#fff"
                />
                <path
                    id="Path_244"
                    data-name="Path 244"
                    d="M101.941,225.42a.312.312,0,1,0-.264-.372A.32.32,0,0,0,101.941,225.42Z"
                    transform="translate(-87.277 -220.872)"
                    fill="#fff"
                />
                <path
                    id="Path_245"
                    data-name="Path 245"
                    d="M95.615,233.392l0-.022-.025-.006Z"
                    transform="translate(-83.527 -226.156)"
                    fill="#fff"
                />
                <path
                    id="Path_246"
                    data-name="Path 246"
                    d="M98.524,227.3a1.142,1.142,0,0,0-.377-.145c-.244-.048-.366-.072-.609-.123a1.373,1.373,0,0,0-1.36.544.941.941,0,0,0-.16.344l-.358,1.526c1.3.3,1.959.438,3.276.662l.267-1.544A1.281,1.281,0,0,0,98.524,227.3Zm-.014,1.163c-.066.358-.1.537-.164.894-.742-.136-1.113-.211-1.851-.374l.2-.887c.088-.4.42-.533,1-.43l.038.008C98.323,227.793,98.585,228.052,98.51,228.461Z"
                    transform="translate(-83.567 -222.23)"
                    fill="#fff"
                />
                <path
                    id="Path_247"
                    data-name="Path 247"
                    d="M118.923,237.607a.314.314,0,1,0,.337.328A.331.331,0,0,0,118.923,237.607Z"
                    transform="translate(-97.694 -228.774)"
                    fill="#fff"
                />
                <path
                    id="Path_248"
                    data-name="Path 248"
                    d="M122.4,236.98l-.025,0v0Z"
                    transform="translate(-100.052 -228.385)"
                    fill="#fff"
                />
                <path
                    id="Path_249"
                    data-name="Path 249"
                    d="M116.889,237.475a.314.314,0,1,0-.045.621.333.333,0,0,0,.377-.288A.337.337,0,0,0,116.889,237.475Z"
                    transform="translate(-96.436 -228.693)"
                    fill="#fff"
                />
                <path
                    id="Path_250"
                    data-name="Path 250"
                    d="M116.92,229.087c.031.542.047.812.078,1.354a.676.676,0,0,1-.646.764l-.188.008a.688.688,0,0,1-.657-.752l-.038-1.312c-.288.008-.431.011-.719.016.008.572.013.857.021,1.428.005.371-.242.606-.753.691q-.722-.154-.716-.645l.02-1.473c-.278,0-.417-.007-.695-.014-.014.508-.02.763-.034,1.271-.014.528-.226.8-.626.827-.359-.039-.561-.279-.6-.722.029-.569.043-.853.071-1.422-.279-.014-.419-.022-.7-.04-.037.584-.056.877-.093,1.461h0c-.026.416-.352.618-.972.589v0l-.12-.01c.029-.35.044-.525.074-.874a1.442,1.442,0,0,0-.379-.982,1.156,1.156,0,0,0-.759-.383c-.43-.047-.645-.072-1.075-.128a1.18,1.18,0,0,0-1.008.492c.659.1.99.142,1.651.219.638.074.928.378.874.935l-.064.66c-1.307-.127-1.959-.211-3.257-.418l-.1.628c1.645.263,2.5.367,4.113.5h0l.33.026a1.671,1.671,0,0,0,.381-.053,2.965,2.965,0,0,0,.642-.346,1.643,1.643,0,0,0,.827.485v.022l.13.005c.01,0,.02,0,.03,0h0a1.6,1.6,0,0,0,.972-.4,1.564,1.564,0,0,0,1.015.44h.231a1.8,1.8,0,0,0,.956-.384l.085,0a1.745,1.745,0,0,0,.967.341l.231-.01a1.144,1.144,0,0,0,.427-.1,2.639,2.639,0,0,0,.521-.349,1.141,1.141,0,0,0,.35-.979l-.1-1.411C117.336,229.062,117.2,229.071,116.92,229.087Z"
                    transform="translate(-89.641 -223.302)"
                    fill="#fff"
                />
                <path
                    id="Path_251"
                    data-name="Path 251"
                    d="M143.2,226.873a.319.319,0,0,0,.288-.352.33.33,0,0,0-.654.08A.319.319,0,0,0,143.2,226.873Z"
                    transform="translate(-112.68 -221.768)"
                    fill="#fff"
                />
                <path
                    id="Path_252"
                    data-name="Path 252"
                    d="M145.081,226.628a.312.312,0,1,0-.369-.266A.319.319,0,0,0,145.081,226.628Z"
                    transform="translate(-113.837 -221.616)"
                    fill="#fff"
                />
                <path
                    id="Path_253"
                    data-name="Path 253"
                    d="M141.09,236.457l0-.023-.035,0Z"
                    transform="translate(-111.581 -228.051)"
                    fill="#fff"
                />
                <path
                    id="Path_254"
                    data-name="Path 254"
                    d="M149.41,225.015c-.27.075-.405.112-.676.183l.345,1.312a.679.679,0,0,1-.487.878l-.184.046a.69.69,0,0,1-.8-.606l-.3-1.278c-.282.065-.423.1-.705.159.122.558.183.837.3,1.4.079.363-.119.642-.6.827q-.741-.007-.832-.49l-.273-1.448c-.274.052-.412.077-.686.124l.218,1.253c.094.54-.074.854-.493.946-.265.021-.427-.164-.486-.549-.092-.595-.137-.892-.229-1.487-.609.094-.915.136-1.526.211-.911.211-1.3.845-1.149,1.937l.093.958c.7-.067,1.066-.109,1.778-.2l-.082-.631c-.437.057-.656.083-1.095.131-.008-.075-.012-.112-.021-.187-.193-.9.062-1.376.748-1.45.272-.034.408-.052.679-.091l.168,1.193a1.065,1.065,0,0,0,1.076.821l.046-.007h0l.021,0,.077-.012.031-.005h0l.028,0v0a1.605,1.605,0,0,0,.883-.585,1.571,1.571,0,0,0,1.086.23l.227-.046a1.817,1.817,0,0,0,.866-.566l.083-.019a1.761,1.761,0,0,0,1.021.141l.226-.056a1.165,1.165,0,0,0,.4-.181,2.685,2.685,0,0,0,.445-.446,1.138,1.138,0,0,0,.151-1.03Z"
                    transform="translate(-111.437 -221.004)"
                    fill="#fff"
                />
                <path
                    id="Path_255"
                    data-name="Path 255"
                    d="M167.463,223.094c-.374.281-.515.573-.417.88l.7,2.22c.124.389-.128.688-.76.877-.366.109-.549.162-.915.265a1.238,1.238,0,0,0,1.119.272l.3-.092a1.39,1.39,0,0,0,.981-1.249l-.039-.247Z"
                    transform="translate(-127.022 -219.818)"
                    fill="#fff"
                />
                <path
                    id="Path_256"
                    data-name="Path 256"
                    d="M177.373,219.873c1.039-.456,1.619-.732,2.695-1.28l-.681-1.337a1.3,1.3,0,0,0-1.332-.662,1.263,1.263,0,0,0-.385.1c-.523.25-.786.371-1.314.606l.863,1.944-.108.048-.079.034-.077.034-.076.033-.35-.8a1.435,1.435,0,0,0-.808-.681,1.191,1.191,0,0,0-.863.028c-.408.166-.612.246-1.023.4a1.2,1.2,0,0,0-.667.915c.635-.229.951-.348,1.58-.6.606-.241,1.011-.114,1.228.4l.257.611c-1.233.518-1.855.756-3.111,1.193l.209.6c1.568-.545,2.384-.864,3.855-1.51h0l.153-.067.034-.015Zm.513-2.61c.43-.12.708-.05.843.224l.423.859c-.511.252-.768.375-1.285.612l-.638-1.387C177.493,217.449,177.625,217.387,177.886,217.262Z"
                    transform="translate(-131.373 -215.806)"
                    fill="#fff"
                />
            </g>
        </g>
    </svg>